<svg role="img" viewBox="0 0 24 24" xmlns="http://www.w3.org/2000/svg">
    <g>
        <path d="M7.954,16.973C5.81,19.342 4.046,21.347 4.011,21.433C3.977,21.503 4.219,21.745 4.531,21.97C4.945,22.281 5.395,22.402 6.242,22.437C7.816,22.54 8.403,22.177 10.392,19.929C11.256,18.961 12,18.149 12.017,18.149C12.034,18.149 12.778,18.961 13.66,19.947C15.683,22.195 16.219,22.523 17.792,22.437C18.64,22.402 19.089,22.281 19.504,21.97C19.815,21.745 20.057,21.503 20.023,21.434C19.936,21.174 12.103,12.615 11.965,12.633C11.896,12.633 10.098,14.587 7.954,16.973Z" />
        <path fill="#e57000" d="M19.764,4.487C19.262,4.747 18,5.992 15.821,8.378C14.058,10.315 12.622,11.94 12.622,12.009C12.622,12.079 14.075,13.721 15.856,15.675C19.4,19.565 19.781,19.859 21.458,19.877C22.496,19.877 23.913,19.289 24,18.822C24.017,18.666 22.72,17.11 21.095,15.329C19.487,13.549 18.155,12.044 18.155,12.009C18.155,11.975 19.487,10.47 21.095,8.689C22.72,6.91 24.017,5.352 24,5.214C23.913,4.764 22.634,4.246 21.527,4.176C20.732,4.142 20.317,4.211 19.764,4.488L19.764,4.487Z" />
        <path fill="#e57000" d="M1.297,4.367C0.45,4.695 0,5.007 0,5.248C0,5.369 1.331,6.926 2.94,8.707C4.565,10.487 5.879,11.975 5.879,12.009C5.879,12.044 4.548,13.531 2.939,15.312C1.314,17.11 0.017,18.683 0.035,18.822C0.121,19.289 1.539,19.877 2.576,19.877C4.254,19.859 4.634,19.565 8.179,15.675C9.959,13.721 11.412,12.061 11.412,12.009C11.412,11.94 9.977,10.315 8.213,8.379C5.913,5.871 4.79,4.747 4.253,4.505C3.441,4.107 2.127,4.038 1.297,4.367Z" />
        <path d="M4.928,1.825C3.838,2.378 3.838,2.465 4.858,3.605C10.513,9.9 11.862,11.387 11.965,11.387C12.104,11.404 19.936,2.845 20.023,2.586C20.057,2.516 19.815,2.274 19.504,2.05C19.089,1.738 18.64,1.617 17.792,1.583C16.202,1.479 15.648,1.825 13.677,4.038C12.778,5.041 12.017,5.871 12.017,5.871C12,5.871 11.257,5.058 10.375,4.073C9.493,3.088 8.473,2.1 8.127,1.91C7.331,1.46 5.706,1.426 4.927,1.824L4.928,1.825Z" />
    </g>
</svg>